<?xml version="1.0" encoding="UTF-8" standalone="no"?>
<svg
   viewBox="0 0 24 24"
   aria-hidden="true"
   class="r-4qtqp9 r-yyyyoo r-1xvli5t r-dnmrzs r-bnwqim r-1plcrui r-lrvibr r-1hdv0qi"
   version="1.1"
   id="svg85"
   sodipodi:docname="share.svg"
   inkscape:version="1.1.2 (0a00cf5339, 2022-02-04)"
   xmlns:inkscape="http://www.inkscape.org/namespaces/inkscape"
   xmlns:sodipodi="http://sodipodi.sourceforge.net/DTD/sodipodi-0.dtd"
   xmlns="http://www.w3.org/2000/svg"
   xmlns:svg="http://www.w3.org/2000/svg">
  <defs
     id="defs89" />
  <sodipodi:namedview
     id="namedview87"
     pagecolor="#ffffff"
     bordercolor="#666666"
     borderopacity="1.0"
     inkscape:pageshadow="2"
     inkscape:pageopacity="0.0"
     inkscape:pagecheckerboard="0"
     showgrid="false"
     inkscape:zoom="33.041667"
     inkscape:cx="12"
     inkscape:cy="12"
     inkscape:window-width="1920"
     inkscape:window-height="1011"
     inkscape:window-x="0"
     inkscape:window-y="0"
     inkscape:window-maximized="1"
     inkscape:current-layer="svg85" />
  <g
     id="g83">
    <path
       d="M17.53 7.47l-5-5c-.293-.293-.768-.293-1.06 0l-5 5c-.294.293-.294.768 0 1.06s.767.294 1.06 0l3.72-3.72V15c0 .414.336.75.75.75s.75-.336.75-.75V4.81l3.72 3.72c.146.147.338.22.53.22s.384-.072.53-.22c.293-.293.293-.767 0-1.06z"
       id="path79" />
    <path
       d="M19.708 21.944H4.292C3.028 21.944 2 20.916 2 19.652V14c0-.414.336-.75.75-.75s.75.336.75.75v5.652c0 .437.355.792.792.792h15.416c.437 0 .792-.355.792-.792V14c0-.414.336-.75.75-.75s.75.336.75.75v5.652c0 1.264-1.028 2.292-2.292 2.292z"
       id="path81" />
  </g>
</svg>
